<svg id="btn_video_back" xmlns="http://www.w3.org/2000/svg" width="80" height="80" viewBox="0 0 80 80">
    <defs>
        <style>
            .cls-2{fill:#fff}
        </style>
    </defs>
    <circle id="bg" cx="40" cy="40" r="40" style="opacity:.5"/>
    <g id="Layer_1" transform="translate(16 16)">
        <path id="패스_1745" data-name="패스 1745" class="cls-2" d="M25 1A24.005 24.005 0 0 0 7 9.126V3H5v10h10v-2H8.042A21.989 21.989 0 1 1 3 25H1A24 24 0 1 0 25 1z" transform="translate(-1 -1)"/>
    </g>
    <path id="패스_1747" data-name="패스 1747" class="cls-2" d="M5.287-7.918H3.329v-10.448a3.392 3.392 0 0 0-.042-.608.634.634 0 0 0-.16-.338.656.656 0 0 0-.371-.143 5.914 5.914 0 0 0-.608-.025H1.59v-1.891h1.131a10.866 10.866 0 0 1 1.367.068 1.447 1.447 0 0 1 .777.3 1.228 1.228 0 0 1 .338.7 7.366 7.366 0 0 1 .084 1.258zm13.049-4.659a7.515 7.515 0 0 1-.27 2.127 3.606 3.606 0 0 1-.861 1.519 3.681 3.681 0 0 1-1.528.886 7.615 7.615 0 0 1-2.271.3A5.155 5.155 0 0 1 9.6-8.947a5 5 0 0 1-1.173-3.629v-4.136A5 5 0 0 1 9.6-20.341a5.155 5.155 0 0 1 3.807-1.2 7.615 7.615 0 0 1 2.271.3 3.59 3.59 0 0 1 1.528.9 3.608 3.608 0 0 1 .861 1.511 7.426 7.426 0 0 1 .27 2.118zm-1.958-3.747a7.445 7.445 0 0 0-.127-1.477 2.4 2.4 0 0 0-.447-1.021 2.042 2.042 0 0 0-.92-.582 4.746 4.746 0 0 0-1.477-.194 5.1 5.1 0 0 0-1.553.194 1.869 1.869 0 0 0-.912.6 2.151 2.151 0 0 0-.447 1.021 8.443 8.443 0 0 0-.11 1.46v3.359a9.318 9.318 0 0 0 .11 1.57 2.029 2.029 0 0 0 .43 1 1.732 1.732 0 0 0 .92.549 6.216 6.216 0 0 0 1.562.16 5.274 5.274 0 0 0 1.4-.16 1.925 1.925 0 0 0 .928-.549 2.238 2.238 0 0 0 .49-1 6.789 6.789 0 0 0 .152-1.57z" transform="translate(26.663 54.644)"/>
    <path id="패스_1751" data-name="패스 1751" class="cls-2" d="M3.728-4.492q.714.333 1.179.578a4.358 4.358 0 0 1 .738.47A1.456 1.456 0 0 1 6.014-3a1.143 1.143 0 0 1 .107.506v.762a1.115 1.115 0 0 1-.452 1.027 1.485 1.485 0 0 1-.566.2 5.048 5.048 0 0 1-.78.054H.87V-1.3h3.251a1.673 1.673 0 0 0 .839-.15.65.65 0 0 0 .232-.589v-.274a.7.7 0 0 0-.077-.327 1.085 1.085 0 0 0-.28-.316 4.429 4.429 0 0 0-.566-.351q-.363-.2-.935-.458Q2.656-4.087 2.2-4.3a3.754 3.754 0 0 1-.714-.411 1.15 1.15 0 0 1-.386-.412 1.244 1.244 0 0 1-.113-.56v-.464a.967.967 0 0 1 .513-.929 2.852 2.852 0 0 1 1.347-.274h3.1v.881H2.99a1.961 1.961 0 0 0-.828.125.437.437 0 0 0-.244.423v.214a.493.493 0 0 0 .065.262.766.766 0 0 0 .268.226 3.967 3.967 0 0 0 .548.3l.929.427z" transform="translate(45.626 47.349)"/>
</svg>
