<svg xmlns="http://www.w3.org/2000/svg" width="20" height="20" viewBox="0 0 20 20">
    <path d="M1 4.942 5.807.131a.445.445 0 0 1 .629 0l.02.02a1.561 1.561 0 0 1 .262 1.86l5.034 4.321a2.1 2.1 0 0 1 2.884.083l.03.03a.445.445 0 0 1 0 .629l-2.881 2.882 2.807 2.807c.056.058 1.385 1.427 2.259 2.517.832 1.037 1 1.227 1.005 1.237a.445.445 0 0 1-.628.628c-.007-.006-.193-.168-1.237-1.005-1.089-.874-2.459-2.2-2.521-2.263l-2.8-2.8L7.939 13.8a.445.445 0 0 1-.629 0l-.03-.03a2.1 2.1 0 0 1-.08-2.881L2.876 5.855a1.561 1.561 0 0 1-1.86-.262L1 5.572a.445.445 0 0 1 0-.63z" transform="translate(.584 1.371)" style="fill:#ff6f00"/>
</svg>
