<svg id="ico_user" xmlns="http://www.w3.org/2000/svg" width="20" height="20" viewBox="0 0 20 20">
    <defs>
        <style>
            .cls-2{fill:#263238;stroke:#263238;stroke-width:.9px}
        </style>
    </defs>
    <g id="user" transform="translate(-8.492 2.592)">
        <g id="그룹_841" data-name="그룹 841" transform="translate(11.678 8.439)">
            <g id="그룹_840" data-name="그룹 840">
                <path id="패스_1716" data-name="패스 1716" class="cls-2" d="M18.142 257.323a7.084 7.084 0 0 0-6.814 7.312.3.3 0 1 0 .593 0 6.468 6.468 0 0 1 6.221-6.676 6.468 6.468 0 0 1 6.221 6.676.3.3 0 1 0 .593 0 7.084 7.084 0 0 0-6.814-7.312z" transform="translate(-11.328 -257.323)"/>
            </g>
        </g>
        <g id="그룹_843" data-name="그룹 843" transform="translate(14.711 -.552)">
            <g id="그룹_842" data-name="그룹 842">
                <path id="패스_1717" data-name="패스 1717" class="cls-2" d="M143.108 0a3.78 3.78 0 1 0 3.78 3.78 3.784 3.784 0 0 0-3.78-3.78zm0 6.873A3.093 3.093 0 1 1 146.2 3.78a3.1 3.1 0 0 1-3.092 3.093z" transform="translate(-139.328)"/>
            </g>
        </g>
    </g>
</svg>
