<svg xmlns="http://www.w3.org/2000/svg" width="20" height="20" viewBox="0 0 20 20">
    <path data-name="패스 1715" d="M15.333 1.375h-1.582V.55a.55.55 0 0 0-1.1 0v.825H4.95V.55a.55.55 0 0 0-1.1 0v.825H2.269A2.271 2.271 0 0 0 0 3.644v11.689A2.272 2.272 0 0 0 2.269 17.6h13.064a2.272 2.272 0 0 0 2.267-2.267V3.644a2.272 2.272 0 0 0-2.267-2.269zm-13.064 1.1H3.85v.55a.55.55 0 0 0 1.1 0v-.55h7.7v.55a.55.55 0 0 0 1.1 0v-.55h1.581A1.17 1.17 0 0 1 16.5 3.644V4.95H1.1V3.644a1.17 1.17 0 0 1 1.169-1.169zM15.333 16.5H2.269A1.17 1.17 0 0 1 1.1 15.333V6.051h15.4v9.282a1.17 1.17 0 0 1-1.167 1.167z" style="fill:#263238;stroke:#263238;stroke-width:.3px" transform="translate(1.199 1.199)"/>
</svg>
