<svg xmlns="http://www.w3.org/2000/svg" width="15" height="15" viewBox="0 0 15 15">
    <path style="fill:none" d="M0 0h15v15H0z"/>
    <g data-name="그룹 859">
        <path data-name="패스 1727" d="M38.884.966a3.307 3.307 0 0 0-4.672 0l-4.919 4.919a.389.389 0 1 0 .55.55l4.919-4.919a2.588 2.588 0 0 1 3.573 0 2.529 2.529 0 0 1 0 3.572l-6.869 6.946a1.592 1.592 0 0 1-2.2 0 1.556 1.556 0 0 1 0-2.2l6.594-6.672a.6.6 0 0 1 .824 0 .584.584 0 0 1 0 .825l-6.319 6.4a.433.433 0 0 0 0 .55.388.388 0 0 0 .55 0l6.319-6.4a1.361 1.361 0 0 0 0-1.924 1.393 1.393 0 0 0-1.923 0l-6.593 6.673a2.347 2.347 0 0 0 0 3.3 2.344 2.344 0 0 0 3.3 0l6.869-6.946a3.307 3.307 0 0 0-.003-4.674z" transform="translate(-26.445 .871)" style="fill:#263238"/>
    </g>
</svg>
