<svg id="ico_view_nor" xmlns="http://www.w3.org/2000/svg" width="15" height="15" viewBox="0 0 15 15">
    <defs>
        <style>
            .cls-2{fill:#263238;stroke:#263238;stroke-width:.3px}
        </style>
    </defs>
    <path id="bg" style="fill:none" d="M0 0h15v15H0z"/>
    <g id="visibility" transform="translate(.354 -61.867)">
        <g id="그룹_827" data-name="그룹 827" transform="translate(5.376 67.597)">
            <g id="그룹_826" data-name="그룹 826">
                <path id="패스_1707" data-name="패스 1707" class="cls-2" d="M196.006 192.629a.3.3 0 0 0-.421.421 1.787 1.787 0 1 1-2.527 2.527.3.3 0 0 0-.421.421 2.382 2.382 0 1 0 3.369-3.369z" transform="translate(-192.55 -192.542)"/>
            </g>
        </g>
        <g id="그룹_829" data-name="그룹 829" transform="translate(4.765 66.986)">
            <g id="그룹_828" data-name="그룹 828">
                <path id="패스_1708" data-name="패스 1708" class="cls-2" d="M173.466 170.7a2.359 2.359 0 0 0-2.8 2.341 2.335 2.335 0 0 0 .042.415.3.3 0 0 0 .293.246.265.265 0 0 0 .052 0 .3.3 0 0 0 .241-.345 1.725 1.725 0 0 1-.032-.312 1.765 1.765 0 0 1 2.1-1.755.3.3 0 1 0 .1-.586z" transform="translate(-170.668 -170.659)"/>
            </g>
        </g>
        <g id="그룹_831" data-name="그룹 831" transform="translate(3.725 66.031)">
            <g id="그룹_830" data-name="그룹 830">
                <path id="패스_1709" data-name="패스 1709" class="cls-2" d="M143.934 139.606a14.468 14.468 0 0 0-3.9-3.112.3.3 0 0 0-.273.53 14 14 0 0 1 3.547 2.775c-.71.769-3.5 3.574-6.45 3.574a6.867 6.867 0 0 1-2.995-.718.3.3 0 1 0-.258.536 7.448 7.448 0 0 0 3.253.777c3.67 0 6.94-3.814 7.077-3.977a.3.3 0 0 0-.001-.385z" transform="translate(-133.435 -136.461)"/>
            </g>
        </g>
        <g id="그룹_833" data-name="그룹 833" transform="translate(0 65.199)">
            <g id="그룹_832" data-name="그룹 832">
                <path id="패스_1710" data-name="패스 1710" class="cls-2" d="M9.1 107a6.15 6.15 0 0 0-1.954-.343c-3.67 0-6.94 3.814-7.077 3.977a.3.3 0 0 0-.016.366 11.057 11.057 0 0 0 2.732 2.59.3.3 0 0 0 .412-.084.3.3 0 0 0-.083-.412 10.892 10.892 0 0 1-2.432-2.249c.686-.745 3.5-3.59 6.465-3.59a5.575 5.575 0 0 1 1.764.312.294.294 0 0 0 .377-.187.3.3 0 0 0-.188-.38z" transform="translate(0 -106.659)"/>
            </g>
        </g>
        <g id="그룹_835" data-name="그룹 835" transform="translate(1.786 64.008)">
            <g id="그룹_834" data-name="그룹 834">
                <path id="패스_1711" data-name="패스 1711" class="cls-2" d="M74.63 64.1a.3.3 0 0 0-.421 0L64.083 74.221a.3.3 0 0 0 .421.421L74.63 64.516a.3.3 0 0 0 0-.416z" transform="translate(-63.996 -64.008)"/>
            </g>
        </g>
    </g>
</svg>
