<svg id="ico_refresh" xmlns="http://www.w3.org/2000/svg" width="15" height="15" viewBox="0 0 15 15">
    <defs>
        <style>
            .cls-2{fill:#263238}
        </style>
    </defs>
    <path id="bg" style="fill:none" d="M0 0h15v15H0z"/>
    <g id="refresh" transform="translate(-10.004 -10.098)">
        <g id="그룹_860" data-name="그룹 860" transform="translate(11.003 11.1)">
            <path id="패스_1729" data-name="패스 1729" class="cls-2" d="m240.345 20.194.669-.084a.551.551 0 0 0 .477-.612.543.543 0 0 0-.612-.477l-2.011.251a.55.55 0 0 0-.477.609l.248 2.038a.547.547 0 1 0 1.087-.135l-.092-.758a5.485 5.485 0 0 1-3.26 9.888.548.548 0 1 0 0 1.095 6.578 6.578 0 0 0 3.972-11.815z" transform="translate(-229.735 -18.806)"/>
            <path id="패스_1730" data-name="패스 1730" class="cls-2" d="M15.309 21.19a.547.547 0 1 0-1.087.135l.092.758a5.485 5.485 0 0 1 3.26-9.888.548.548 0 1 0 0-1.095A6.579 6.579 0 0 0 13.6 22.918l-.664.082a.551.551 0 0 0-.477.612.543.543 0 0 0 .612.477l2.011-.251a.55.55 0 0 0 .477-.609l-.251-2.041z" transform="translate(-11.003 -11.1)"/>
        </g>
    </g>
</svg>
