<svg id="ico_excel" xmlns="http://www.w3.org/2000/svg" width="20" height="20" viewBox="0 0 20 20">
    <defs>
        <style>
            .cls-3{fill:#46b34c}
        </style>
    </defs>
    <path id="bg" style="fill:none" d="M0 0h20v20H0z"/>
    <g id="ico_excel-2" data-name="ico_excel" transform="translate(.186 .773)">
        <g id="그룹_155" data-name="그룹 155">
            <g id="그룹_154" data-name="그룹 154">
                <path id="패스_7756" data-name="패스 7756" d="M265.2 105.058h-8.588a.614.614 0 0 1-.613-.615v-12.3a.614.614 0 0 1 .613-.615h8.588a.614.614 0 0 1 .613.615v12.3a.614.614 0 0 1-.613.615zm0 0" transform="translate(-246.187 -89.066)" style="fill:#f1f5f7"/>
                <path id="패스_7757" data-name="패스 7757" class="cls-3" d="M259.069 152.569h-2.454a.615.615 0 0 1 0-1.23h2.454a.615.615 0 0 1 0 1.23zm0 0" transform="translate(-246.187 -146.418)"/>
                <path id="패스_7758" data-name="패스 7758" class="cls-3" d="M259.069 212.384h-2.454a.615.615 0 0 1 0-1.23h2.454a.615.615 0 0 1 0 1.23zm0 0" transform="translate(-246.187 -203.772)"/>
                <path id="패스_7759" data-name="패스 7759" class="cls-3" d="M259.069 272.193h-2.454a.615.615 0 0 1 0-1.23h2.454a.615.615 0 0 1 0 1.23zm0 0" transform="translate(-246.187 -261.121)"/>
                <path id="패스_7760" data-name="패스 7760" class="cls-3" d="M259.069 332.006h-2.454a.615.615 0 0 1 0-1.23h2.454a.615.615 0 0 1 0 1.23zm0 0" transform="translate(-246.187 -318.474)"/>
                <path id="패스_7761" data-name="패스 7761" class="cls-3" d="M377.139 152.569h-1.227a.615.615 0 0 1 0-1.23h1.227a.615.615 0 0 1 0 1.23zm0 0" transform="translate(-360.577 -146.418)"/>
                <path id="패스_7762" data-name="패스 7762" class="cls-3" d="M377.139 212.384h-1.227a.615.615 0 0 1 0-1.23h1.227a.615.615 0 0 1 0 1.23zm0 0" transform="translate(-360.577 -203.772)"/>
                <path id="패스_7763" data-name="패스 7763" class="cls-3" d="M377.139 272.193h-1.227a.615.615 0 0 1 0-1.23h1.227a.615.615 0 0 1 0 1.23zm0 0" transform="translate(-360.577 -261.121)"/>
                <path id="패스_7764" data-name="패스 7764" class="cls-3" d="M377.139 332.006h-1.227a.615.615 0 0 1 0-1.23h1.227a.615.615 0 0 1 0 1.23zm0 0" transform="translate(-360.577 -318.474)"/>
                <path id="패스_7765" data-name="패스 7765" d="M28.216 31.836a.6.6 0 0 0-.5-.13L17.9 33.551a.613.613 0 0 0-.5.6v13.535a.614.614 0 0 0 .5.6l9.814 1.845a.583.583 0 0 0 .113.011.614.614 0 0 0 .613-.615V32.31a.614.614 0 0 0-.222-.474zm0 0" transform="translate(-17.397 -31.694)" style="fill:#3ca241"/>
                <path id="패스_7766" data-name="패스 7766" d="m97.315 172.053-1.94-2.223 1.962-2.529a.614.614 0 1 0-.968-.757l-1.817 2.342-1.531-1.754a.609.609 0 0 0-.865-.058.615.615 0 0 0-.058.867l1.687 1.934-1.71 2.2a.614.614 0 0 0 .485.993.611.611 0 0 0 .484-.238l1.564-2.017 1.784 2.043a.61.61 0 0 0 .865.059.615.615 0 0 0 .058-.867zm0 0" transform="translate(-88.88 -160.771)" style="fill:#fcfcfc"/>
            </g>
        </g>
    </g>
</svg>
