<svg xmlns="http://www.w3.org/2000/svg" width="20" height="20" viewBox="0 0 20 20">
    <path style="fill:none" d="M0 0h20v20H0z"/>
    <path d="M10 17.794a1.173 1.173 0 0 1-.773-.291c-.808-.706-1.587-1.37-2.274-1.956a42.3 42.3 0 0 1-4.966-4.661A7.444 7.444 0 0 1 0 6.011a6.251 6.251 0 0 1 1.587-4.27 5.378 5.378 0 0 1 4-1.741A5.031 5.031 0 0 1 8.73 1.085 6.429 6.429 0 0 1 10 2.411a6.43 6.43 0 0 1 1.271-1.327A5.031 5.031 0 0 1 14.413 0a5.378 5.378 0 0 1 4 1.741A6.251 6.251 0 0 1 20 6.011a7.443 7.443 0 0 1-1.983 4.873 42.287 42.287 0 0 1-4.965 4.66c-.688.587-1.469 1.252-2.278 1.96a1.174 1.174 0 0 1-.774.29zM5.587 1.172a4.219 4.219 0 0 0-3.139 1.363 5.085 5.085 0 0 0-1.277 3.476 6.264 6.264 0 0 0 1.714 4.125 41.622 41.622 0 0 0 4.823 4.517c.69.588 1.472 1.254 2.286 1.966.819-.713 1.6-1.381 2.293-1.969a41.629 41.629 0 0 0 4.823-4.516 6.264 6.264 0 0 0 1.714-4.125 5.085 5.085 0 0 0-1.276-3.475 4.219 4.219 0 0 0-3.139-1.364 3.886 3.886 0 0 0-2.426.84 5.685 5.685 0 0 0-1.352 1.564.74.74 0 0 1-1.27 0 5.68 5.68 0 0 0-1.348-1.563 3.885 3.885 0 0 0-2.426-.839zm0 0" transform="translate(0 1.104)" style="fill:#ccced0"/>
</svg>
