<svg xmlns="http://www.w3.org/2000/svg" width="30" height="30" viewBox="0 0 30 30">
    <path style="fill:none" d="M0 0h30v30H0z"/>
    <path d="m21.592 13.991-1.166-.68a2 2 0 0 1 0-3.4l1.166-.68a1.846 1.846 0 0 0 .68-2.623L21.3 4.955a1.846 1.846 0 0 0-2.623-.68l-1.166.68A1.939 1.939 0 0 1 14.6 3.3V1.943A1.949 1.949 0 0 0 12.653 0H10.71a1.949 1.949 0 0 0-1.943 1.943v1.263a1.939 1.939 0 0 1-2.915 1.652l-1.166-.583a1.884 1.884 0 0 0-2.623.68l-.972 1.652a2.119 2.119 0 0 0 .68 2.72l1.166.68a1.914 1.914 0 0 1 0 3.3l-1.166.68a1.846 1.846 0 0 0-.68 2.623l.972 1.652a1.846 1.846 0 0 0 2.623.68l1.166-.583a1.939 1.939 0 0 1 2.915 1.652v1.36a1.949 1.949 0 0 0 1.943 1.943h1.943a1.949 1.949 0 0 0 1.947-1.939v-1.263a1.939 1.939 0 0 1 2.915-1.652l1.166.68a1.884 1.884 0 0 0 2.623-.68l.972-1.652a2.217 2.217 0 0 0-.684-2.817zm-9.91 1.555a3.886 3.886 0 1 1 3.886-3.886 3.9 3.9 0 0 1-3.886 3.886z" transform="translate(3.207 3)" style="fill:#fff"/>
</svg>
