<svg xmlns="http://www.w3.org/2000/svg" width="23.005" height="23" viewBox="0 0 23.005 23">
    <defs>
        <clipPath id="jp78fs1qla">
            <path data-name="사각형 525" style="fill:#ff6f00" d="M0 0h23.005v23H0z"/>
        </clipPath>
    </defs>
    <path style="fill:none" d="M0 0h23v23H0z"/>
    <g data-name="그룹 1520">
        <g data-name="그룹 1519" style="clip-path:url(#jp78fs1qla)">
            <path data-name="패스 927" d="M5.4 18.072H2.552a2.432 2.432 0 0 1-2.47-1.979A3.026 3.026 0 0 1 0 15.442V2.622A2.515 2.515 0 0 1 2.023.071 3.394 3.394 0 0 1 2.615 0H20.4A2.533 2.533 0 0 1 23 2.583c-.01 4.317 0 8.627 0 12.94a2.452 2.452 0 0 1-2.174 2.528 3.143 3.143 0 0 1-.459.02h-8.533a.7.7 0 0 0-.512.209l-4.941 4.444a.811.811 0 0 1-1.107.1.775.775 0 0 1-.317-.738c.086-.83.182-1.658.274-2.487l.168-1.53" style="fill:#ff6f00"/>
        </g>
    </g>
    <path data-name="패스 928" d="M2.055-3.78H3.5l.31-5.535.075-2.085h-2.22l.075 2.085zm.72 3.99a1.391 1.391 0 0 0 1.38-1.44 1.391 1.391 0 0 0-1.38-1.44A1.379 1.379 0 0 0 1.41-1.23 1.379 1.379 0 0 0 2.775.21z" transform="translate(8.72 14.611)" style="fill:#fff"/>
</svg>
