<svg id="ico_apply" xmlns="http://www.w3.org/2000/svg" width="20.349" height="20" viewBox="0 0 20.349 20">
    <defs>
        <style>
            .cls-3{fill:#263238;stroke:#253238;stroke-width:.2px}
        </style>
    </defs>
    <path id="패스_1718" data-name="패스 1718" d="M8.8 8.152.685.119a.409.409 0 0 0-.44-.09A.39.39 0 0 0 0 .4l.093 11.024a.406.406 0 0 0 .229.36.4.4 0 0 0 .423-.04l2.029-1.564 1.809 3.192a.412.412 0 0 0 .354.208.4.4 0 0 0 .18-.041l2.4-1.175a.389.389 0 0 0 .2-.236.4.4 0 0 0-.035-.312l-1.7-3.007 2.534.021a.394.394 0 0 0 .284-.678zm-3.5-.145a.393.393 0 0 0-.347.589l1.827 3.235-1.686.825-1.851-3.267a.413.413 0 0 0-.274-.2.4.4 0 0 0-.328.074l-1.75 1.35-.079-9.25L7.54 8.026z" transform="rotate(-30 16.309 -6.608)" style="stroke-width:.5px;fill:#263238;stroke:#253238"/>
    <g id="그룹_847" data-name="그룹 847" transform="rotate(-30 6.215 -4.573)">
        <g id="그룹_846" data-name="그룹 846">
            <path id="패스_1719" data-name="패스 1719" class="cls-3" d="M.367 0A.367.367 0 0 0 0 .367v2.2a.367.367 0 1 0 .734 0v-2.2A.367.367 0 0 0 .367 0z"/>
        </g>
    </g>
    <g id="그룹_849" data-name="그룹 849" transform="rotate(-30 19.288 3.088)">
        <g id="그룹_848" data-name="그룹 848">
            <path id="패스_1720" data-name="패스 1720" class="cls-3" d="M2.567 0h-2.2a.367.367 0 0 0 0 .734h2.2a.367.367 0 0 0 0-.734z"/>
        </g>
    </g>
    <g id="그룹_851" data-name="그룹 851" transform="rotate(-30 14.942 -13.374)">
        <g id="그룹_850" data-name="그룹 850">
            <path id="패스_1721" data-name="패스 1721" class="cls-3" d="M2.567 0h-2.2a.367.367 0 0 0 0 .734h2.2a.367.367 0 0 0 0-.734z"/>
        </g>
    </g>
    <g id="그룹_853" data-name="그룹 853" transform="rotate(-30 10.74 1.828)">
        <g id="그룹_852" data-name="그룹 852">
            <path id="패스_1722" data-name="패스 1722" class="cls-3" d="M2.182 1.663.626.107a.367.367 0 0 0-.519.519l1.557 1.556a.368.368 0 0 0 .26.107.362.362 0 0 0 .259-.107.367.367 0 0 0-.001-.519z"/>
        </g>
    </g>
    <g id="그룹_855" data-name="그룹 855" transform="rotate(-30 22.725 -.667)">
        <g id="그룹_854" data-name="그룹 854">
            <path id="패스_1723" data-name="패스 1723" class="cls-3" d="M2.182.107a.367.367 0 0 0-.519 0L.107 1.663a.367.367 0 0 0 .519.519L2.182.626a.367.367 0 0 0 0-.519z"/>
        </g>
    </g>
    <g id="그룹_857" data-name="그룹 857" transform="rotate(-30 8.108 -9.645)">
        <g id="그룹_856" data-name="그룹 856">
            <path id="패스_1724" data-name="패스 1724" class="cls-3" d="M2.183.108a.367.367 0 0 0-.519 0L.107 1.664a.367.367 0 0 0 .519.519L2.183.626a.367.367 0 0 0 0-.518z"/>
        </g>
    </g>
</svg>
