<svg id="btn_pre_02" xmlns="http://www.w3.org/2000/svg" width="24" height="24" viewBox="0 0 24 24">
    <defs>
        <style>
            .cls-2{fill:#263238;stroke:#263238;stroke-width:.8px}
        </style>
    </defs>
    <path id="bg" style="fill:none" d="M0 0h24v24H0z"/>
    <g id="download" transform="rotate(90 15.775 22.199)">
        <path id="패스_45" data-name="패스 45" class="cls-2" d="M5.691 219.424a.249.249 0 0 1-.175-.072l-5.447-5.4a.244.244 0 0 1 .006-.347.249.249 0 0 1 .344 0l5.272 5.228 5.271-5.228a.249.249 0 0 1 .35.006.244.244 0 0 1 0 .341l-5.447 5.4a.249.249 0 0 1-.174.072z" transform="translate(0 -187.75)"/>
        <path id="패스_46" data-name="패스 46" class="cls-2" d="M5.691 27.169a.249.249 0 0 1-.175-.072L.069 21.7a.244.244 0 0 1 .006-.347.249.249 0 0 1 .344 0l5.272 5.228 5.271-5.228a.249.249 0 0 1 .35-.006.244.244 0 0 1 .006.347l-.006.006-5.446 5.4a.249.249 0 0 1-.175.069z"/>
    </g>
</svg>
