<svg xmlns="http://www.w3.org/2000/svg" width="90" height="90" viewBox="0 0 90 90">
    <defs>
        <filter id="a" x="0" y="0" width="90" height="90" filterUnits="userSpaceOnUse">
            <feOffset dy="5"/>
            <feGaussianBlur stdDeviation="5" result="blur"/>
            <feFlood flood-opacity=".161"/>
            <feComposite operator="in" in2="blur"/>
            <feComposite in="SourceGraphic"/>
        </filter>
    </defs>
    <g style="filter:url(#a)">
        <circle data-name="bg" cx="30" cy="30" r="30" transform="translate(15 10)" style="fill:#263238"/>
    </g>
    <g data-name="ico_plus_menu">
        <path data-name="bg" transform="translate(30 25)" style="fill:none" d="M0 0h30v30H0z"/>
        <g data-name="그룹 825">
            <path data-name="패스 1706" d="M7.055 6.354 12.561.848a.5.5 0 1 0-.7-.7L6.353 5.652.847.146a.5.5 0 0 0-.7.7l5.504 5.508L.145 11.86a.5.5 0 0 0 .7.7l5.508-5.504 5.506 5.506a.5.5 0 1 0 .7-.7z" transform="rotate(-45 66.29 -23.473)" style="fill:#fff;stroke:#fff;stroke-width:2px"/>
        </g>
    </g>
</svg>
