<svg xmlns="http://www.w3.org/2000/svg" width="20" height="20" viewBox="0 0 20 20">
    <path data-name="패스 1763" d="M15.549 5.92v8.349a.421.421 0 0 0-.022.069 1.425 1.425 0 0 1-1.448 1.207q-6.306 0-12.613-.008a1.593 1.593 0 0 1-.657-.146A1.374 1.374 0 0 1 0 14.044V6.167a.621.621 0 0 1 .261-.539Q3.434 3.107 6.594.573A2.3 2.3 0 0 1 7.625 0h.3a2.015 2.015 0 0 1 1 .554c.149.136.3.267.462.392Q12.347 3.3 15.3 5.643a2.166 2.166 0 0 1 .248.277m-14.84.82v7.286a.729.729 0 0 0 .817.814h12.509a.727.727 0 0 0 .81-.805V6.9c0-.047 0-.095-.008-.157-.039.025-.061.036-.08.052l-4.863 3.857c-.443.353-.86.74-1.312 1.08a1.238 1.238 0 0 1-1.424.116 6.419 6.419 0 0 1-.8-.615Q3.578 9.018.8 6.8c-.022-.018-.048-.03-.1-.059m13.908-.734-.111-.089Q11.392 3.422 8.278.926a.7.7 0 0 0-1.019.013Q4.977 2.785 2.69 4.626C2.114 5.088 1.53 5.538.941 6c.04.036.072.067.107.095L7.283 11.1a.7.7 0 0 0 .987-.008q2.46-1.987 4.93-3.969c.465-.373.937-.737 1.421-1.116" transform="translate(2.23 2.228)" style="fill:#c2c2c2;stroke:#c2c2c2;stroke-linecap:round;stroke-width:.3px"/>
</svg>
