<svg id="ico_mute" xmlns="http://www.w3.org/2000/svg" width="30" height="30" viewBox="0 0 30 30">
    <defs>
        <style>
            .cls-2{fill:#fff}
        </style>
    </defs>
    <path id="bg" style="fill:none" d="M0 0h30v30H0z"/>
    <path id="패스_44" data-name="패스 44" class="cls-2" d="M192.7.8a.8.8 0 0 0-.447-.718.777.777 0 0 0-.845.1l-7.067 5.631 8.359 8.359z" transform="translate(-174.35 3.93)"/>
    <path id="패스_45" data-name="패스 45" class="cls-2" d="M21.956 20.855 1.395.3A.791.791 0 1 0 .276 1.416l4.976 4.977h-.463a1.607 1.607 0 0 0-1.582 1.581V14.3a1.586 1.586 0 0 0 1.582 1.58h3.669l7.7 6.151a.807.807 0 0 0 .49.174.926.926 0 0 0 .352-.078.791.791 0 0 0 .443-.712V18.58l3.394 3.393a.791.791 0 1 0 1.12-1.118z" transform="translate(.883 3.865)"/>
</svg>
