<svg xmlns="http://www.w3.org/2000/svg" width="24" height="24" viewBox="0 0 24 24">
    <path style="fill:none" d="M0 0h24v24H0z"/>
    <path data-name="패스 1715" d="M15.68 1.406h-1.617V.563a.563.563 0 0 0-1.125 0v.844H5.063V.563a.563.563 0 0 0-1.125 0v.844H2.32A2.323 2.323 0 0 0 0 3.727V15.68A2.323 2.323 0 0 0 2.32 18h13.36A2.323 2.323 0 0 0 18 15.68V3.727a2.323 2.323 0 0 0-2.32-2.321zM2.32 2.531h1.618v.563a.563.563 0 0 0 1.125 0v-.563h7.875v.563a.563.563 0 0 0 1.125 0v-.563h1.617a1.2 1.2 0 0 1 1.2 1.2v1.332H1.125V3.727A1.2 1.2 0 0 1 2.32 2.531zm13.36 14.344H2.32a1.2 1.2 0 0 1-1.2-1.2V6.188h15.75v9.492a1.2 1.2 0 0 1-1.19 1.195z" style="fill:#263238" transform="translate(3 3)"/>
</svg>
