<svg xmlns="http://www.w3.org/2000/svg" width="90" height="90" viewBox="0 0 90 90">
    <defs>
        <filter id="a" x="0" y="0" width="90" height="90" filterUnits="userSpaceOnUse">
            <feOffset dy="5"/>
            <feGaussianBlur stdDeviation="5" result="blur"/>
            <feFlood flood-opacity=".161"/>
            <feComposite operator="in" in2="blur"/>
            <feComposite in="SourceGraphic"/>
        </filter>
    </defs>
    <g style="filter:url(#a)">
        <circle data-name="bg" cx="30" cy="30" r="30" transform="translate(15 10)" style="fill:#fff"/>
    </g>
    <path d="M6.165-9V1.335h-1.74V-9H.645v-1.065a.734.734 0 0 1 .1-.375.429.429 0 0 1 .405-.18h8.69V-9zm14.97 6.645a5.5 5.5 0 0 1-.285 1.95 2.584 2.584 0 0 1-.87 1.17 3.477 3.477 0 0 1-1.462.57 12.4 12.4 0 0 1-2.063.15 12.428 12.428 0 0 1-2.055-.15 3.484 3.484 0 0 1-1.47-.57 2.641 2.641 0 0 1-.9-1.17 5.252 5.252 0 0 1-.3-1.95V-6.93a5.275 5.275 0 0 1 .3-1.935 2.63 2.63 0 0 1 .9-1.185 3.484 3.484 0 0 1 1.47-.57 12.428 12.428 0 0 1 2.055-.15 12.4 12.4 0 0 1 2.063.15 3.477 3.477 0 0 1 1.462.57 2.575 2.575 0 0 1 .87 1.185 5.528 5.528 0 0 1 .285 1.935zM16.455-.24a11.94 11.94 0 0 0 1.388-.067 1.88 1.88 0 0 0 .907-.323 1.4 1.4 0 0 0 .5-.735A4.668 4.668 0 0 0 19.4-2.7v-3.885a4.668 4.668 0 0 0-.15-1.335 1.4 1.4 0 0 0-.5-.735 1.88 1.88 0 0 0-.907-.322 11.94 11.94 0 0 0-1.388-.068 11.563 11.563 0 0 0-1.448.075 1.855 1.855 0 0 0-.907.33 1.363 1.363 0 0 0-.488.742 4.844 4.844 0 0 0-.143 1.313V-2.7a4.844 4.844 0 0 0 .143 1.312 1.363 1.363 0 0 0 .488.743 1.855 1.855 0 0 0 .907.33 11.563 11.563 0 0 0 1.448.075zM29.52-10.62a10.971 10.971 0 0 1 1.695.1 2.274 2.274 0 0 1 1.005.375 1.4 1.4 0 0 1 .465.758 5.029 5.029 0 0 1 .12 1.208v2.269a6.042 6.042 0 0 1-.12 1.328 1.418 1.418 0 0 1-.465.8 2.063 2.063 0 0 1-1.005.4 10.971 10.971 0 0 1-1.695.105h-3.645a.8.8 0 0 0-.36.075.3.3 0 0 0-.15.3v4.23h-1.74v-11a1.023 1.023 0 0 1 .24-.667.993.993 0 0 1 .81-.292zM25.995-9q-.4 0-.517.15a.908.908 0 0 0-.112.525v3.81a.4.4 0 0 1 .24-.195 1.386 1.386 0 0 1 .3-.03h3.03q.645 0 1.065-.037a1.662 1.662 0 0 0 .66-.173.718.718 0 0 0 .315-.405 2.4 2.4 0 0 0 .09-.735V-7.7a3.054 3.054 0 0 0-.06-.675.6.6 0 0 0-.285-.39 1.68 1.68 0 0 0-.645-.187A9.672 9.672 0 0 0 28.935-9z" transform="translate(28.275 50.738)" style="stroke-width:.3px;fill:#ff6f00;stroke:#ff6f00"/>
    <g data-name="그룹 55">
        <path data-name="패스 113" d="M6.822 6.807.854 12.76a.5.5 0 1 1-.706-.708l5.613-5.6L.147.854A.5.5 0 1 1 .854.146L6.822 6.1a.5.5 0 0 1 0 .708z" transform="rotate(-90 35.636 -2.911)" style="stroke-width:2px;fill:#ff6f00;stroke:#ff6f00"/>
    </g>
</svg>
