<svg xmlns="http://www.w3.org/2000/svg" width="20" height="20" viewBox="0 0 20 20">
    <g data-name="그룹 858">
        <path data-name="패스 1725" d="M18.49 59.429h-1.243v-.424a.365.365 0 0 0-.263-.365 10.3 10.3 0 0 0-2.635-.336 6.8 6.8 0 0 0-4.927 1.827A6.725 6.725 0 0 0 4.5 58.3a10.3 10.3 0 0 0-2.635.336.365.365 0 0 0-.263.365v.42H.365a.366.366 0 0 0-.365.37v11.674a.365.365 0 0 0 .545.318 12.886 12.886 0 0 1 8.794-.731h.088a.366.366 0 0 0 .088 0 12.668 12.668 0 0 1 8.794.731.365.365 0 0 0 .548-.314V59.795a.365.365 0 0 0-.367-.366zM.731 70.883V60.16H1.6v9.166a.365.365 0 0 0 .42.365 16 16 0 0 1 2.284-.183 9.48 9.48 0 0 1 3.121.471 13.436 13.436 0 0 0-6.694.904zm3.578-2.1a16.081 16.081 0 0 0-1.988.128v-9.617a10.081 10.081 0 0 1 2.167-.241 5.967 5.967 0 0 1 4.561 1.791l.011 9.1a8.543 8.543 0 0 0-4.751-1.162zm5.482-7.938a6.022 6.022 0 0 1 4.561-1.791 10.124 10.124 0 0 1 2.167.241v9.615a16.075 16.075 0 0 0-1.977-.132 8.615 8.615 0 0 0-4.751 1.166zm8.329 10.04a13.439 13.439 0 0 0-6.714-.9 9.5 9.5 0 0 1 3.136-.471 15.989 15.989 0 0 1 2.3.179.365.365 0 0 0 .42-.365V60.16h.874z" transform="translate(.572 -55.066)" style="fill:#263238;stroke:#263239;stroke-width:.3px"/>
    </g>
</svg>
