<svg id="ico_clock_sel" xmlns="http://www.w3.org/2000/svg" width="30" height="30" viewBox="0 0 30 30">
    <defs>
        <style>
            .cls-2{fill:#ff6c6c;stroke:#ff6c6c;stroke-width:1.3px}
        </style>
    </defs>
    <path id="bg" style="fill:none" d="M0 0h30v30H0z"/>
    <g id="clock" transform="translate(3 3)">
        <g id="그룹_861" data-name="그룹 861">
            <path id="패스_1731" data-name="패스 1731" class="cls-2" d="M12 24a12 12 0 1 1 12-12 12.013 12.013 0 0 1-12 12zm0-23a11 11 0 1 0 11 11A11.013 11.013 0 0 0 12 1z"/>
        </g>
        <g id="그룹_862" data-name="그룹 862">
            <path id="패스_1732" data-name="패스 1732" class="cls-2" d="M17.5 18a.5.5 0 0 1-.354-.146l-5.5-5.5A.5.5 0 0 1 11.5 12V4.5a.5.5 0 0 1 1 0v7.293l5.354 5.354A.5.5 0 0 1 17.5 18z"/>
        </g>
    </g>
</svg>
