<svg xmlns="http://www.w3.org/2000/svg" width="20.001" height="20" viewBox="0 0 20.001 20">
    <path style="fill:none" d="M0 0h20v20H0z"/>
    <path data-name="heart (1)" d="M18.414 1.741a5.378 5.378 0 0 0-4-1.741 5.032 5.032 0 0 0-3.143 1.085A6.43 6.43 0 0 0 10 2.411a6.426 6.426 0 0 0-1.27-1.326A5.031 5.031 0 0 0 5.587 0a5.379 5.379 0 0 0-4 1.741A6.252 6.252 0 0 0 0 6.011a7.444 7.444 0 0 0 1.984 4.873 42.3 42.3 0 0 0 4.966 4.661 231.87 231.87 0 0 1 2.278 1.959 1.174 1.174 0 0 0 1.546 0c.81-.708 1.59-1.373 2.279-1.96a42.279 42.279 0 0 0 4.965-4.661A7.444 7.444 0 0 0 20 6.011a6.251 6.251 0 0 0-1.586-4.27zm0 0" transform="translate(0 1.104)" style="fill:#263238"/>
</svg>
