<svg xmlns="http://www.w3.org/2000/svg" width="30" height="30" viewBox="0 0 30 30">
    <path style="fill:none" d="M0 0h30v30H0z"/>
    <path data-name="패스 1728" d="M17.92-6.36a8.177 8.177 0 0 0-8.46-8.38 8.161 8.161 0 0 0-8.44 8.38 8.177 8.177 0 0 0 8.46 8.38 8.7 8.7 0 0 0 4.12-.98l2.3 2.9 1.64-1.24L15.3-.14a8.279 8.279 0 0 0 2.62-6.22zM9.48.1a6.205 6.205 0 0 1-6.36-6.46 6.178 6.178 0 0 1 6.34-6.46 6.194 6.194 0 0 1 6.36 6.46 6.5 6.5 0 0 1-1.78 4.62l-2.96-3.74-1.64 1.26 2.92 3.68A6.48 6.48 0 0 1 9.48.1z" transform="translate(4.98 20.4)" style="fill:#ff6f00"/>
</svg>
