<svg id="ico_view_sel" xmlns="http://www.w3.org/2000/svg" width="15" height="15" viewBox="0 0 15 15">
    <defs>
        <style>
            .cls-2{fill:#263238;stroke:#263238;stroke-width:.3px}
        </style>
    </defs>
    <path id="bg" style="fill:none" d="M0 0h15v15H0z"/>
    <g id="visibility" transform="translate(.351 -103.332)">
        <g id="그룹_837" data-name="그룹 837" transform="translate(0 106.662)">
            <g id="그룹_836" data-name="그룹 836">
                <path id="패스_1712" data-name="패스 1712" class="cls-2" d="M14.246 110.663c-.113-.164-2.819-4-7.1-4-3.671 0-6.942 3.816-7.079 3.978a.3.3 0 0 0 0 .385C.208 111.188 3.479 115 7.15 115s6.942-3.816 7.079-3.978a.3.3 0 0 0 .017-.359zm-7.1 3.744c-2.943 0-5.741-2.806-6.451-3.575.71-.769 3.5-3.575 6.451-3.575 3.443 0 5.873 2.8 6.467 3.559-.682.745-3.496 3.591-6.463 3.591z" transform="translate(0 -106.662)"/>
            </g>
        </g>
        <g id="그룹_839" data-name="그룹 839" transform="translate(4.918 108.601)">
            <g id="그룹_838" data-name="그룹 838">
                <path id="패스_1713" data-name="패스 1713" class="cls-2" d="M172.893 170.662a2.231 2.231 0 1 0 2.231 2.231 2.234 2.234 0 0 0-2.231-2.231zm0 3.905a1.674 1.674 0 1 1 1.674-1.674 1.676 1.676 0 0 1-1.674 1.674z" transform="translate(-170.662 -170.662)"/>
            </g>
        </g>
    </g>
</svg>
