<svg id="ico_sound" xmlns="http://www.w3.org/2000/svg" width="30" height="30" viewBox="0 0 30 30">
    <defs>
        <style>
            .cls-2{fill:#fff}
        </style>
    </defs>
    <path id="bg" style="fill:none" d="M0 0h30v30H0z"/>
    <g id="그룹_863" data-name="그룹 863" transform="translate(-470.133 -294)">
        <path id="패스_1754" data-name="패스 1754" class="cls-2" d="M13.8 16.069a.79.79 0 0 0-.837.095l-7.7 6.153h-3.68A1.585 1.585 0 0 0 0 23.9v6.326a1.584 1.584 0 0 0 1.583 1.581h3.678l7.7 6.153a.793.793 0 0 0 .839.093.789.789 0 0 0 .448-.712V16.782a.793.793 0 0 0-.448-.713z" transform="translate(474.232 281.939)"/>
        <path id="패스_1755" data-name="패스 1755" class="cls-2" d="M343.1 122.48a.791.791 0 1 0-1.113 1.125 6.294 6.294 0 0 1 0 8.925.79.79 0 0 0 1.113 1.122 7.872 7.872 0 0 0 0-11.171z" transform="translate(149.361 180.934)"/>
        <path id="패스_1756" data-name="패스 1756" class="cls-2" d="M388.217 77.354a.791.791 0 0 0-1.116 1.122 9.425 9.425 0 0 1 0 13.388.791.791 0 0 0 1.116 1.122 11.007 11.007 0 0 0 0-15.633z" transform="translate(106.477 223.828)"/>
    </g>
</svg>
