<svg xmlns="http://www.w3.org/2000/svg" width="20" height="20" viewBox="0 0 20 20">
    <path d="M56.246 2.455A8.283 8.283 0 0 0 50.336 0h-.01a8.4 8.4 0 0 0-8.359 8.373c.118 3.178 3.175 7.213 5.556 10.314a3.672 3.672 0 0 0 5.7-.088c1.766-2.195 5.58-7.473 5.464-10.226a8.333 8.333 0 0 0-2.439-5.919zm-4.252 15.178a2.117 2.117 0 0 1-3.313 0c-3.228-4.11-5.15-7.534-5.15-9.261a6.811 6.811 0 0 1 6.8-6.81h.01a6.806 6.806 0 0 1 6.787 6.81c-.005 1.748-1.875 5.123-5.134 9.261zM50.37 11.68a3.32 3.32 0 1 1 3.32-3.32 3.324 3.324 0 0 1-3.32 3.32zm0-5.078a1.758 1.758 0 1 0 1.758 1.758A1.76 1.76 0 0 0 50.37 6.6z" transform="translate(-40.328)" style="fill:#263238"/>
</svg>
