<svg id="logo_gnb" xmlns="http://www.w3.org/2000/svg" width="150" height="30" viewBox="0 0 150 30">
    <defs>
        <style>
            .cls-1{fill:#515256}
        </style>
    </defs>
    <path id="패스_1" data-name="패스 1" class="cls-1" d="M138.128 271.264h24.283v-30h-24.283zm3.022-6.614a20.905 20.905 0 0 1 .315-2.4 12.361 12.361 0 0 1 1.661-4.424 5.806 5.806 0 0 1 .69-.811 7.656 7.656 0 0 1-1.448-.566.137.137 0 0 1-.053-.191.149.149 0 0 1 .2-.051c.444.107 1.017.265 1.74.412a7.92 7.92 0 0 1 1.461-.96 10.587 10.587 0 0 1 3.846-.979 22.262 22.262 0 0 1 5.042.352l.51.1a9.788 9.788 0 0 0 2.809-3.855 21.291 21.291 0 0 0 1.264-5.879.146.146 0 0 1 .291 0c.007.467-.031 1.31-.088 2.483a20.924 20.924 0 0 1-.315 2.4 12.361 12.361 0 0 1-1.661 4.424 5.813 5.813 0 0 1-.69.811 7.654 7.654 0 0 1 1.448.566.137.137 0 0 1 .053.191.15.15 0 0 1-.2.051c-.443-.108-1.017-.265-1.739-.412a7.932 7.932 0 0 1-1.461.96 10.587 10.587 0 0 1-3.846.979 22.233 22.233 0 0 1-5.042-.352l-.51-.1a9.777 9.777 0 0 0-2.809 3.856 21.289 21.289 0 0 0-1.264 5.878.146.146 0 0 1-.291 0c-.007-.467.03-1.311.087-2.483z" transform="translate(-138.128 -241.264)"/>
    <path id="패스_2" data-name="패스 2" class="cls-1" d="M169.912 296.32a10.828 10.828 0 0 0 5.277-1.358l.078-.053a20.093 20.093 0 0 0-2.915-.088 10.823 10.823 0 0 0-5.277 1.359l-.078.052a20.1 20.1 0 0 0 2.915.088z" transform="translate(-158.989 -280.571)"/>
    <path id="패스_3" data-name="패스 3" class="cls-1" d="M268.936 271.637a3.8 3.8 0 0 0 2.264-3.737c0-3.037-1.555-4.719-5.067-4.719h-4.86v17.842h5.173c3.729 0 5.127-2.223 5.127-5.166a4.07 4.07 0 0 0-2.637-4.22zm-4.386-5.937h1.241c1.455 0 2.14.865 2.14 2.521a2.091 2.091 0 0 1-2.2 2.276h-1.181zm1.371 12.8h-1.371v-5.484h1.058c1.954 0 2.694.912 2.694 2.74-.002 1.812-.635 2.75-2.382 2.75z" transform="translate(-228.804 -257.104)"/>
    <path id="패스_4" data-name="패스 4" class="cls-1" d="M315.248 262.23c-3.435 0-5.017 2.055-5.017 4.582v9.209c0 2.526 1.582 4.581 5.017 4.581s5.02-2.055 5.02-4.581v-9.209c0-2.527-1.586-4.582-5.02-4.582zm1.74 13.717c0 1.336-.421 1.973-1.74 1.973s-1.743-.637-1.743-1.973v-9.063c0-1.336.423-1.982 1.743-1.982s1.74.646 1.74 1.982z" transform="translate(-264.845 -256.416)"/>
    <path id="패스_5" data-name="패스 5" class="cls-1" d="M626.775 273.392h-.055l-3.991-10.208h-3.035v17.842h2.956v-11.14h.055l4.172 11.141h2.854v-17.843h-2.956z" transform="translate(-493.368 -257.106)"/>
    <path id="패스_6" data-name="패스 6" class="cls-1" d="M579.268 273.12h4.232v-2.667h-4.232v-4.6h5.5v-2.672h-8.773v17.842h9.141v-2.663h-5.867z" transform="translate(-460.487 -257.106)"/>
    <path id="패스_7" data-name="패스 7" class="cls-1" d="M673.724 263.184h-4.86v17.842h4.86c3.38 0 5.177-1.729 5.177-5.385v-7.067c-.001-3.657-1.801-5.39-5.177-5.39zm1.9 12.827c0 1.88-.605 2.5-2.348 2.5h-1.136V265.7h1.136c1.743 0 2.348.624 2.348 2.5z" transform="translate(-528.901 -257.104)"/>
    <path id="사각형_1" data-name="사각형 1" class="cls-1" transform="translate(109.124 6.08)" d="M0 0h3.281v17.842H0z"/>
    <path id="패스_8" data-name="패스 8" class="cls-1" d="M410.424 269.981h-.051l-2.3-6.8h-3.323l3.959 10.427v7.415h3.278v-7.415l3.959-10.427h-3.329z" transform="translate(-334.466 -257.106)"/>
    <path id="패스_9" data-name="패스 9" class="cls-1" d="M366.161 263.184H361.3v17.842h4.859c3.38 0 5.178-1.729 5.178-5.385v-7.067c.002-3.661-1.796-5.39-5.176-5.39zm1.9 12.827c0 1.88-.6 2.5-2.351 2.5h-1.133V265.7h1.133c1.75 0 2.351.62 2.351 2.495z" transform="translate(-302.448 -257.104)"/>
    <path id="패스_10" data-name="패스 10" class="cls-1" d="M510.431 268.449c0-3.806-1.876-5.265-5.543-5.265h-4.6v17.842h3.274v-7.312c.584 0 1.269-.026 1.692-.073l2.327 7.385h3.329l-2.778-8.078c1.113-.469 2.299-1.63 2.299-4.499zm-5.706 2.745h-1.164V265.7h1.164c1.769 0 2.432.62 2.432 2.744s-.662 2.75-2.432 2.75z" transform="translate(-404.802 -257.104)"/>
    <path id="패스_11" data-name="패스 11" class="cls-1" d="M455.208 281.027h3.278v-7.906h4.387v-2.667h-4.387v-4.6h5.867v-2.672h-9.145z" transform="translate(-371.564 -257.106)"/>
</svg>
