<svg id="m.logo_gnb" xmlns="http://www.w3.org/2000/svg" width="120.004" height="24.001" viewBox="0 0 120.004 24.001">
    <defs>
        <style>
            .cls-1{fill:#515256}
        </style>
    </defs>
    <path id="패스_1" data-name="패스 1" class="cls-1" d="M138.128 265.265h19.428v-24h-19.428zm2.418-5.292a16.722 16.722 0 0 1 .252-1.922 9.89 9.89 0 0 1 1.329-3.539 4.647 4.647 0 0 1 .552-.649 6.125 6.125 0 0 1-1.159-.453.109.109 0 0 1-.043-.153.119.119 0 0 1 .159-.041c.355.086.814.212 1.392.329a6.339 6.339 0 0 1 1.169-.768 8.471 8.471 0 0 1 3.077-.784 17.812 17.812 0 0 1 4.034.282l.408.082a7.831 7.831 0 0 0 2.248-3.084 17.034 17.034 0 0 0 1.011-4.7.117.117 0 0 1 .233 0c.005.373-.025 1.048-.071 1.986a16.752 16.752 0 0 1-.252 1.922 9.89 9.89 0 0 1-1.329 3.539 4.653 4.653 0 0 1-.552.649 6.124 6.124 0 0 1 1.159.453.109.109 0 0 1 .043.153.12.12 0 0 1-.159.041c-.355-.086-.813-.212-1.392-.329a6.346 6.346 0 0 1-1.169.768 8.471 8.471 0 0 1-3.077.784 17.788 17.788 0 0 1-4.034-.282l-.408-.082a7.821 7.821 0 0 0-2.248 3.085 17.032 17.032 0 0 0-1.011 4.7.117.117 0 0 1-.233 0c-.005-.373.025-1.049.071-1.987z" transform="translate(-138.128 -241.264)"/>
    <path id="패스_2" data-name="패스 2" class="cls-1" d="M169.329 296.017a8.662 8.662 0 0 0 4.222-1.087l.062-.042a16.081 16.081 0 0 0-2.332-.071 8.66 8.66 0 0 0-4.222 1.087c-.022.013-.041.028-.063.042a16.09 16.09 0 0 0 2.333.071z" transform="translate(-160.591 -283.416)"/>
    <path id="패스_3" data-name="패스 3" class="cls-1" d="M267.4 269.946a3.04 3.04 0 0 0 1.814-2.987c0-2.43-1.244-3.775-4.054-3.775h-3.888v14.274h4.138c2.983 0 4.1-1.779 4.1-4.133a3.256 3.256 0 0 0-2.11-3.379zm-3.5-4.746h.993c1.164 0 1.712.692 1.712 2.017a1.672 1.672 0 0 1-1.756 1.821h-.949zm1.1 10.241h-1.1v-4.388h.846c1.563 0 2.155.729 2.155 2.192-.001 1.447-.512 2.197-1.909 2.197z" transform="translate(-235.298 -258.319)"/>
    <path id="패스_4" data-name="패스 4" class="cls-1" d="M314.245 262.23c-2.748 0-4.014 1.644-4.014 3.665v7.367c0 2.021 1.266 3.665 4.014 3.665s4.016-1.644 4.016-3.665V265.9c0-2.026-1.269-3.67-4.016-3.67zm1.392 10.974c0 1.069-.337 1.579-1.392 1.579s-1.395-.51-1.395-1.579v-7.251c0-1.069.339-1.586 1.395-1.586s1.392.517 1.392 1.586z" transform="translate(-273.921 -257.578)"/>
    <path id="패스_5" data-name="패스 5" class="cls-1" d="M625.359 271.351h-.044l-3.193-8.166h-2.428v14.274h2.365v-8.913h.044l3.337 8.913h2.284v-14.275h-2.365z" transform="translate(-518.63 -258.321)"/>
    <path id="패스_6" data-name="패스 6" class="cls-1" d="M578.614 271.134H582V269h-3.386v-3.679h4.4v-2.137h-7.018v14.274h7.313v-2.133h-4.694z" transform="translate(-483.585 -258.321)"/>
    <path id="패스_7" data-name="패스 7" class="cls-1" d="M672.752 263.184h-3.888v14.274h3.888c2.7 0 4.142-1.383 4.142-4.308v-5.65c0-2.929-1.438-4.316-4.142-4.316zm1.518 10.262c0 1.5-.484 2-1.878 2h-.909V265.2h.909c1.394 0 1.878.5 1.878 2z" transform="translate(-556.89 -258.319)"/>
    <path id="사각형_1" data-name="사각형 1" class="cls-1" transform="translate(87.302 4.865)" d="M0 0h2.625v14.274H0z"/>
    <path id="패스_8" data-name="패스 8" class="cls-1" d="M409.289 268.622h-.041l-1.839-5.437h-2.659l3.167 8.342v5.933h2.623v-5.933l3.167-8.342h-2.663z" transform="translate(-348.521 -258.321)"/>
    <path id="패스_9" data-name="패스 9" class="cls-1" d="M365.19 263.184h-3.89v14.274h3.888c2.7 0 4.142-1.383 4.142-4.308v-5.65c.002-2.932-1.437-4.316-4.14-4.316zm1.518 10.262c0 1.5-.481 2-1.881 2h-.906V265.2h.906c1.4 0 1.881.5 1.881 2z" transform="translate(-314.218 -258.319)"/>
    <path id="패스_10" data-name="패스 10" class="cls-1" d="M508.4 267.4c0-3.045-1.5-4.212-4.435-4.212h-3.68v14.274h2.619v-5.85c.467 0 1.015-.021 1.354-.059l1.862 5.909h2.663L506.564 271c.89-.379 1.836-1.308 1.836-3.6zm-4.565 2.2h-.931v-4.4h.931c1.416 0 1.946.5 1.946 2.2s-.527 2.192-1.943 2.192z" transform="translate(-423.896 -258.319)"/>
    <path id="패스_11" data-name="패스 11" class="cls-1" d="M455.208 277.459h2.622v-6.325h3.51V269h-3.51v-3.678h4.694v-2.137h-7.316z" transform="translate(-388.29 -258.321)"/>
</svg>
