<?xml version="1.0" encoding="utf-8"?>
<!-- Generator: Adobe Illustrator 22.1.0, SVG Export Plug-In . SVG Version: 6.00 Build 0)  -->
<svg version="1.1" id="Layer_1" xmlns="http://www.w3.org/2000/svg" xmlns:xlink="http://www.w3.org/1999/xlink" x="0px" y="0px"
	 viewBox="0 0 18 15" style="enable-background:new 0 0 18 15;" xml:space="preserve" width="18px" height="12px">
<style type="text/css">
	.st0{filter:url(#Adobe_OpacityMaskFilter);}
	.st1{fill:#FFFFFF;}
	.st2{mask:url(#mask-2_1_);}
	.st3{fill:#90929E;}
</style>
<title>icon_password view_off</title>
<desc>Created with Sketch.</desc>
<g id="TEST_Channel">
	<g id="test_channel_비밀번호-재설정_새로운-비밀번호" transform="translate(-1099.000000, -352.000000)">
		<g id="account-info" transform="translate(790.000000, 279.000000)">
			<g id="input_password_2" transform="translate(0.000000, 58.000000)">
				<g id="_x30_4-Icon_x2F_165-hide" transform="translate(309.000000, 14.000000)">
					<g id="Mask">
						<path id="path-1_1_" d="M12.7,13.7c-1.2,0.6-2.4,0.9-3.7,0.9c-3.1,0-5.9-1.9-8.4-5.6C1.7,7.3,3,5.9,4.3,5L2.2,2.8l1-0.9
							L15.8,15l-1,0.9L12.7,13.7z M11.6,12.6L10.1,11c-0.3,0.2-0.7,0.3-1.1,0.3c-1.2,0-2.2-1-2.2-2.2c0-0.4,0.1-0.8,0.3-1.1L5.5,6.2
							C4.9,7,4.5,8,4.5,9c0,2.5,2,4.5,4.5,4.5C10,13.5,10.9,13.2,11.6,12.6z M6.7,3.7C7.4,3.5,8.2,3.4,9,3.4c3.1,0,5.9,1.9,8.4,5.6
							c-0.9,1.3-1.7,2.3-2.7,3.2l-1.6-1.6c0.2-0.5,0.3-1,0.3-1.5c0-2.5-2-4.5-4.5-4.5c-0.5,0-1,0.1-1.4,0.2L6.7,3.7z M9.7,6.8
							l1.5,1.6C11,7.7,10.4,7.1,9.7,6.8z"/>
					</g>
					<defs>
						<filter id="Adobe_OpacityMaskFilter" filterUnits="userSpaceOnUse" x="0" y="0" width="18" height="18">
							<feColorMatrix  type="matrix" values="1 0 0 0 0  0 1 0 0 0  0 0 1 0 0  0 0 0 1 0"/>
						</filter>
					</defs>
					<mask maskUnits="userSpaceOnUse" x="0" y="0" width="18" height="18" id="mask-2_1_">
						<g class="st0">
							<path id="path-1_2_" class="st1" d="M12.7,13.7c-1.2,0.6-2.4,0.9-3.7,0.9c-3.1,0-5.9-1.9-8.4-5.6C1.7,7.3,3,5.9,4.3,5
								L2.2,2.8l1-0.9L15.8,15l-1,0.9L12.7,13.7z M11.6,12.6L10.1,11c-0.3,0.2-0.7,0.3-1.1,0.3c-1.2,0-2.2-1-2.2-2.2
								c0-0.4,0.1-0.8,0.3-1.1L5.5,6.2C4.9,7,4.5,8,4.5,9c0,2.5,2,4.5,4.5,4.5C10,13.5,10.9,13.2,11.6,12.6z M6.7,3.7
								C7.4,3.5,8.2,3.4,9,3.4c3.1,0,5.9,1.9,8.4,5.6c-0.9,1.3-1.7,2.3-2.7,3.2l-1.6-1.6c0.2-0.5,0.3-1,0.3-1.5c0-2.5-2-4.5-4.5-4.5
								c-0.5,0-1,0.1-1.4,0.2L6.7,3.7z M9.7,6.8l1.5,1.6C11,7.7,10.4,7.1,9.7,6.8z"/>
						</g>
					</mask>
					<g id="_x30_3-Button_x2F_05-BG_x2F_01-prImary" class="st2">
						<path id="Rectangle-6" class="st3" d="M3,0h12c1.7,0,3,1.3,3,3v12c0,1.7-1.3,3-3,3H3c-1.7,0-3-1.3-3-3V3C0,1.3,1.3,0,3,0z"/>
					</g>
				</g>
			</g>
		</g>
	</g>
</g>
</svg>
